{"title":"Pariah.1998.SWESUB.DVDRip.XviD.AC3.(5.1).-Zen_Bud","uid":5676925,"size":1472301010,"categoryP":"video","categoryS":"movies","magnet":"?xt=urn:btih:a2fb613272ec142530578d0e073635bc68c7559c&amp;dn=Pariah.1998.SWESUB.DVDRip.XviD.AC3.%285.1%29.-Zen_Bud&amp;tr=udp%3A%2F%2Ftracker.openbittorrent.com%3A80&amp;tr=udp%3A%2F%2Fopen.demonii.com%3A1337&amp;tr=udp%3A%2F%2Ftracker.coppersurfer.tk%3A6969&amp;tr=udp%3A%2F%2Fexodus.desync.com%3A6969","seeders":0,"leechers":2,"uploader":null,"files":1,"time":1278578321,"description":"General\nComplete name                    : Pariah.avi\nFormat                           : AVI\nFile size                        : 1.37 GiB\nDuration                         : 1h 40mn\nOverall bit rate                 : 1 958 Kbps\n\nVideo\n\nFormat                           : MPEG-4 Visual\nCodec ID/Hint                    : XviD\nDuration                         : 1h 40mn\nBit rate                         : 1 498 Kbps\nWidth                            : 720 pixels\nHeight                           : 480 pixels\nDisplay aspect ratio             : 16:9\nStream size                      : 1.05 GiB (77%)\nWriting library                  : XviD 1.1.2 (UTC 2006-11-01)\n\nAudio\n\nFormat                           : AC-3\nDuration                         : 1h 40mn\nBit rate                         : 448 Kbps\nChannel(s)                       : 6 channels\nChannel positions                : Front: L C R, Side: L R, LFE\nSampling rate                    : 48.0 KHz\nStream size                      : 321 MiB (23%)\n\n\n","torrent":{"xt":"urn:btih:a2fb613272ec142530578d0e073635bc68c7559c","amp;dn":"Pariah.1998.SWESUB.DVDRip.XviD.AC3.%285.1%29.-Zen_Bud","amp;tr":["udp%3A%2F%2Ftracker.openbittorrent.com%3A80","udp%3A%2F%2Fopen.demonii.com%3A1337","udp%3A%2F%2Ftracker.coppersurfer.tk%3A6969","udp%3A%2F%2Fexodus.desync.com%3A6969"],"infoHash":"a2fb613272ec142530578d0e073635bc68c7559c","infoHashBuffer":{"type":"Buffer","data":[162,251,97,50,114,236,20,37,48,87,141,14,7,54,53,188,104,199,85,156]},"announce":[],"urlList":[]}}